<?xml version="1.0" encoding="utf-8"?>
<!-- Generator: Adobe Illustrator 27.7.0, SVG Export Plug-In . SVG Version: 6.00 Build 0)  -->
<svg version="1.1" id="Layer_1" xmlns="http://www.w3.org/2000/svg" xmlns:xlink="http://www.w3.org/1999/xlink" x="0px" y="0px"
	 width="612px" height="792px" viewBox="0 0 612 792" style="enable-background:new 0 0 612 792;" xml:space="preserve">
<g>
	<path id="Tracciato_33009" style="fill:#00549F;" d="M405.5,428.2H206.6c-4.4,0-8.6-1.7-11.8-4.8c-3.1-3.1-4.8-7.3-4.8-11.7v-30.7
		c0-4.4,1.8-8.5,4.9-11.6c3.1-3.1,7.3-4.8,11.7-4.7h198.9c4.4,0,8.6,1.7,11.7,4.7c3.1,3,4.9,7.2,4.9,11.6v30.7
		c0,4.3-1.8,8.5-4.9,11.6c-3.1,3.1-7.3,4.8-11.7,4.7"/>
	<path id="Tracciato_33014" style="fill:#FDC82F;" d="M212.1,379.7H237v4.9h-18.6v9.4h17.6v4.9h-17.6v14.3h-6.3V379.7z"/>
	<rect id="Rettangolo_2810" x="244.2" y="379.7" style="fill:#FDC82F;" width="6.3" height="33.5"/>
	<path id="Tracciato_33015" style="fill:#FDC82F;" d="M258.7,413.2v-33.5h7.9l10.5,14.3c2.6,3.6,4.9,7.3,7,11.2h0.2
		c-0.5-4.6-0.7-9.3-0.6-14v-11.5h6.3v33.5h-7.1l-10.7-14.7c-2.7-3.7-5.1-7.6-7.3-11.7h-0.2c0.3,4.3,0.3,8.8,0.3,14.3v12L258.7,413.2
		z"/>
	<path id="Tracciato_33016" style="fill:#FDC82F;" d="M321.3,399h-17.6v9.2l18.6-0.2v5.1h-24.9v-33.5h24.9v5.1h-18.6v9.2h17.6V399z"
		/>
	<path id="Tracciato_33017" style="fill:#FDC82F;" d="M383,378.9c-11,0-19.8,6.6-19.8,17.4s8.8,17.4,19.8,17.4s19.8-7.8,19.8-17.4
		S394,378.9,383,378.9 M383,408.6c-7.4,0-13.5-3.8-13.5-12.3c0-8.4,6-12.3,13.5-12.3c7.4,0,13.5,5.5,13.5,12.3
		C396.5,403,390.5,408.6,383,408.6"/>
	<path id="Tracciato_33018" style="fill:#FDC82F;" d="M358.3,407.3c-2.4,0.8-5,1.2-7.6,1.2c-9.6,0-17.3-3.8-17.3-12.1
		s7.7-12.1,17.3-12.1c2.6,0,5.2,0.4,7.7,1.2l1.5-5.1c-3-0.9-6.1-1.4-9.3-1.4c-13.1,0-23.8,6.6-23.8,17.4c0,10.7,9.1,17.4,23.8,17.4
		c3.1,0,6.2-0.5,9.1-1.4L358.3,407.3z"/>
</g>
</svg>
